<!-- Generated by IcoMoon.io -->
<svg version="1.1" xmlns="http://www.w3.org/2000/svg" width="18" height="32" viewBox="0 0 18 32">
<title>develop1</title>
<path fill="#eac7ac" d="M4.997 1.581l1.121 0.099c0 0.758-0.33 0.561-0.528 0.561-0.158 0 0.066 0.506 0.198 0.758l-0.791 1.154-1.253 2.77c0.495-0.33 3.199-0.33 4.155-0.297 0.765 0.026 1.968-0.451 2.473-0.693l3.001 0.165 1.616 0.989c0.11 0.561 0.33 1.939 0.33 2.968s-0.55 1.396-0.824 1.451l-2.374-1.715-0.132-1.484h-6.826l-1.154-0.165c-0.141 0.009-0.327 0.022-0.528 0.037-0.897 1.111 0.11 1.032 0.725 0.854l3.331-0.264 0.758 0.528c-1.517 1.154-6.167 0.956-6.431 0.33-0.211-0.501 0.088-1.088 0.264-1.319-0.363 0.066-0.66-0.198-0.89-0.429s-0.561 0.297-0.429 0.528c0.132 0.231 0.033 0.726-0.33 0.726s-0.495-0.528-0.363-1.121c0.132-0.594 0.726-0.627 1.121-0.627 0.317 0 0.857-0.088 1.088-0.132 0.211-0.29 1.605-2.561 2.276-3.661v-1.352l0.396-0.66z"></path>
<path fill="#eac7ac" d="M11.56 0.79l1.055-0.132 1.088 0.462 1.451 1.979-0.297 1.253-1.385 1.121-1.484-0.198-1.088-1.319v-1.814l0.66-1.352z"></path>
<path fill="#eac7ac" d="M8.394 15.036c0.237-0.343 0.934-1.99 1.253-2.77 1.616 0.154 4.848 0.521 4.848 0.758s-0.198 1.616-0.297 2.275c-2.034 0.055-6.042 0.079-5.804-0.264z"></path>
<path fill="#a08263" d="M13.341 1.318c-0.053-0.369-0.594-0.396-0.857-0.363-1.017-0.204-1.138 0.797-1.039 1.534 0.246-0.075 0.685-0.165 0.809-0.017 0.165 0.198-0.165 0.198-0.264 0.132-0.079-0.053-0.385-0.022-0.527 0 0.010 0.058 0.021 0.113 0.033 0.165 0.165 0.726 0 1.154-0.066 1.484-0.053 0.264 0.198 0.726 0.33 0.923-0.026 0.554-1.044 0.846-1.55 0.923l-0.627-0.627c0.176-0.242 0.534-1.101 0.561-2.605 0.033-1.88 1.055-2.44 1.517-2.704 0.369-0.211 0.879 0 1.088 0.132 0.66-0.198 1.088-0.099 1.88 0.429s0.726 2.111 0.693 2.473c-0.033 0.363 0.066 0.495 0.396 1.385 0.264 0.712-0.11 1.308-0.33 1.517 0 0.237-0.264 0.429-0.396 0.495-0.079-0.29-0.89-0.693-1.286-0.857-0.106-0.317 0.044-0.901 0.132-1.154 0.237-0.132 0.407-0.451 0.462-0.594 0.022 0.022 0.132 0.053 0.396 0s0.22-0.682 0.165-0.989c-0.154-0.033-0.508-0.106-0.693-0.132-0.070-0.010-0.166-0.113-0.269-0.264-0.163-0.022-0.536-0.053-0.721 0s-0.209-0.066-0.198-0.132c0.161-0.066 0.553-0.158 0.835 0-0.214-0.357-0.431-0.869-0.472-1.154z"></path>
<path fill="#61472d" d="M14.825 0.922c-0.607-0.818-1.638-0.737-2.078-0.594l-0.099 0.231c0.297 0 0.923 0.429 0.956 0.758 0.026 0.264 0.978 1.297 1.451 1.781 0.106 0.844-0.352 1.891-0.594 2.308 0.989-0.66 1.121-3.463 0.363-4.485z"></path>
<path fill="#61472d" d="M12.582 0.559l0.099-0.264c-1.484-0.791-2.078 1.022-2.21 1.451s-0.033 1.814 0 2.638c0.026 0.66-0.385 1.176-0.594 1.352 0.462 0.066 1.055-1.88 0.956-2.638s0.495-2.308 0.758-2.275c0.211 0.026 0.748-0.165 0.989-0.264z"></path>
<path fill="#f5d5bc" d="M5.426 1.878c-0.158-0.132-0.352-0.055-0.429 0-0.495 0.066-0.264 1.352-0.297 1.814-0.026 0.367-1.187 1.876-1.772 2.594-0.004 0.005-0.007 0.009-0.009 0.011 0.003-0.004 0.006-0.007 0.009-0.011 0.153-0.209 1.476-2.768 1.508-3.122 0.033-0.363-0.429-1.451-0.231-1.451 0.158 0 0.462-0.66 0.594-0.989 0.066-0.011 0.284-0.026 0.627 0 0.429 0.033 0.693 0.857 0.693 0.989s-0.495 0.33-0.693 0.165z"></path>
<path fill="#f5d5bc" d="M0.183 7.946c0.077-0.319 0.31-0.95 0.627-0.923 0.388 0.032 1.345 0.318 1.725 0.329 0.008 0 0.015 0 0.023 0-0.007 0-0.015-0-0.023-0-0.604-0.008-1.883 0.099-2.352 0.594z"></path>
<path fill="#f5d5bc" d="M11.131 5.605c-0.396 0.158-1.682 0.682-2.275 0.923 1.517-0.495 2.276-0.231 2.77-0.297s0.561 0.462 1.55 0.561l0.048 0.005c0.944 0.094 1.013 0.101 1.337 0.523 0.33 0.429-0.429 0.956-0.33 1.517 0.079 0.448 0.693 1.022 0.989 1.253 0.22-0.286 0.574-1.194 0.231-2.539-0.429-1.682-1.583-1.682-2.144-1.946s-1.682-0.198-2.177 0z"></path>
<path fill="#f5d5bc" d="M10.274 9.463c-0.264-0.132-0.11-0.715 0-0.989 0.561-0.066 0.363 0.165 0.396 0.495s-0.066 0.66-0.396 0.495z"></path>
<path fill="#f5d5bc" d="M8.394 15.003c0.079-0.448 0.561-1.858 0.791-2.506 0.176-0.088 0.534-0.211 0.561 0 0.033 0.264-0.33 0.824-0.561 1.187-0.185 0.29-0.605 1-0.791 1.319z"></path>
<path fill="#f5d5bc" d="M10.802 15.333c-0.264-0.686-0.198-2.177-0.132-2.836 1.143 0.143 3.403 0.534 3.298 0.956-0.132 0.528-2.836 2.737-3.166 1.88z"></path>
<path fill="#d6b49b" d="M5.195 3.428c0.158-0.475 0.462-0.418 0.594-0.33 0.033 0.231-0.758 1.286-1.022 2.144-0.211 0.686-0.396 1.275-0.462 1.484l-0.637 0.223c-0.009 0.010-0.017 0.011-0.023 0.008l0.023-0.008c0.025-0.026 0.057-0.11 0.076-0.322 0.033-0.363 1.253-2.605 1.451-3.199z"></path>
<path fill="#d6b49b" d="M0.776 8.342c0.079 0.026 0.78-0.011 1.121-0.033-0.055-0.011-0.191-0.040-0.297-0.066-0.132-0.033-0.429-0.363-0.758-0.33s-0.165 0.396-0.066 0.429z"></path>
<path fill="#d6b49b" d="M9.318 9.298c-0.475-0.106-2.023 0.374-2.737 0.627 1.55-1.154 0-0.956-0.297-0.956s-2.902 0.462-3.199 0.165c-0.297-0.297 0.198-0.693 0.429-0.956s1.253 0.066 1.682 0.132c0.429 0.066 1.385-0.462 2.276-0.791s1.649-0.132 2.407 0.33c0.758 0.462 1.913 0.165 2.737-0.066s0.791 0.33 0.462 0.66c-0.264 0.264-1.407 0.176-1.946 0.099l-0.462 0.758c0.053-0.791-0.286-0.835-0.462-0.758-0.099 0.297-0.416 0.864-0.89 0.758z"></path>
<path fill="#d6b49b" d="M13.77 4.912c-0.053 0.079-0.088 0.561-0.099 0.791-0.686-0.317-1.671-0.286-2.078-0.231 0.185-0.185 0.077-0.605 0-0.791 0.132 0.22 0.521 0.66 1.022 0.66s0.978-0.286 1.154-0.429z"></path>
<path fill="#d6b49b" d="M9.614 13.519c-0.211 0.343-0.506 1.11-0.627 1.451 0.297 0.055 0.89 0.119 0.89-0.066s0.396-1.726 0.594-2.473c-0.088-0.099-0.264-0.237-0.264 0 0 0.297-0.33 0.66-0.594 1.088z"></path>
<path fill="#2c9a4a" d="M9.383 9.166c-0.607 0.712-0.736 1.572-0.726 1.913 0.422 0.132 1.187-1.638 1.517-2.539l-0.791 0.627z"></path>
<path fill="#2c9a4a" d="M9.021 12.662c0.106-0.132 0.11-0.451 0.099-0.594l1.253-0.989c0.209 0.22 0.699 0.699 0.989 0.857 0.363 0.198 1.286-0.594 1.847-0.857s0.824 0.231 0.89 0.594c0.053 0.29 0.506 0.605 0.726 0.726-0.088 0.209-0.27 0.679-0.297 0.89-0.033 0.264-1.88 0.264-3.265-0.264-1.108-0.422-1.957-0.418-2.243-0.363z"></path>
<path fill="#2c9a4a" d="M12.22 23.907c-0.211-0.58-1.033-1.693-1.418-2.177 1.781 0 3.298 4.815 3.562 5.771 0.211 0.765 2.133 3.639 3.067 4.98-0.462-0.572-1.629-2.045-2.605-3.364-1.22-1.649-2.341-4.485-2.605-5.21z"></path>
<path fill="#34a853" d="M9.911 9.1c0.079-0.026 0.231-0.363 0.297-0.528-0.158 0.607 0.022 0.89 0.132 0.956-0.066 0.429 0.231 0.594 0.429 1.286 0.158 0.554 1.539 0.517 2.21 0.429-0.176 0.176-0.686 0.574-1.319 0.758-0.791 0.231-1.319-0.956-1.319-0.758s-0.495 0.66-0.495 0.824c0 0.132-0.484 0.121-0.726 0.099-0.396-0.528-0.473-1.011-0.462-1.187 0.528-0.198 1.154-1.847 1.253-1.88z"></path>
<path fill="#34a853" d="M14.132 15.003c-0.369-0.158-3.935-0.154-5.672-0.132-1.748 2.21-2.012 7.519-1.583 8.739s1.187 5.013 1.187 6.794c0 1.425 0.396 3.672 0.594 4.617h1.88c-0.231-0.934-0.732-2.975-0.89-3.66s0.066-2.418 0.198-3.199c0.165-0.715 0.534-2.684 0.693-4.848 0.198-2.704 0.495-1.418 1.121-0.923s2.308 4.98 3.694 7.222c1.108 1.794 3.298 4.353 4.254 5.408 0.451-0.407 1.273-1.247 0.956-1.352-0.396-0.132-3.661-5.078-3.825-6.299s-1.682-2.902-2.341-4.254c-0.66-1.352-0.264-3.628-0.429-4.947s-1.154-1.715-1.187-2.539c-0.026-0.66 0.89-0.693 1.352-0.627z"></path>
<path fill="#47bc67" d="M12.121 8.639l-0.989-0.099c-0.055 0.055-0.198 0.251-0.33 0.594s-0.385 0.407-0.495 0.396c-0.528 2.144 2.473 1.847 2.902 1.616s0.693 0.132 0.726 0.462c0.026 0.264 0.583 0.682 0.857 0.857 0.132-0.237 0.297-1.198 0.363-1.649-0.594 0.495-1.814-0.495-2.243-0.824-0.343-0.264-0.671-1.011-0.791-1.352z"></path>
<path fill="#47bc67" d="M12.615 15.894c-0.079-1.055 1.066-1.055 1.649-0.923 0.176 1.044 0.6 3.364 0.89 4.287 0.363 1.154 1.319 2.935 1.352 4.518 0.026 1.266 1.088 4.111 1.616 5.375 1.055 0.981 2.396 3.773 2.935 5.046-1.297-1.275-3.911-4.070-3.99-5.046-0.099-1.22-0.758-2.671-1.913-3.99s-1.22-3.364-1.22-5.903c0-2.539-1.22-2.045-1.319-3.364z"></path>
<path fill="#47bc67" d="M9.647 26.744c0-0.844 0.638-2.682 0.956-3.496 0.627 2.506 0 8.080 0 8.607 0 0.422 0.132 2.682 0.198 3.759-0.791-0.825-1.385-4.32-1.385-4.617s0.231-3.199 0.231-4.254z"></path>
</svg>
