<!-- Generated by IcoMoon.io -->
<svg version="1.1" xmlns="http://www.w3.org/2000/svg" width="25" height="32" viewBox="0 0 25 32">
<title>avocado</title>
<path fill="#58853e" d="M23.635 19.277c0 6.426-5.209 11.636-11.636 11.636s-11.636-5.209-11.636-11.636c0-6.426 5.209-11.636 11.636-11.636s11.636 5.209 11.636 11.636z"></path>
<path fill="#58853e" d="M18.366 4.442h-12.671l-4.454 10.413h21.515l-4.391-10.412z"></path>
<path fill="#58853e" d="M19.119 7.61c0 3.897-3.173 7.057-7.088 7.057s-7.088-3.159-7.088-7.057c0-3.897 3.173-7.057 7.088-7.057s7.088 3.159 7.088 7.057z"></path>
<path fill="#9ccc65" d="M22.569 19.081c0 6.015-4.746 10.89-10.601 10.89s-10.601-4.876-10.601-10.89 4.746-10.89 10.601-10.89c5.855 0 10.601 4.876 10.601 10.89z"></path>
<path fill="#9ccc65" d="M17.768 5.196h-11.544l-4.057 9.746h19.601l-4-9.746z"></path>
<path fill="#9ccc65" d="M18.454 8.161c0 3.648-2.891 6.605-6.458 6.605s-6.458-2.957-6.458-6.605 2.891-6.605 6.458-6.605c3.566 0 6.458 2.957 6.458 6.605z"></path>
<path fill="#e7f278" d="M20.687 18.563c0 5.019-3.904 9.087-8.719 9.087s-8.719-4.069-8.719-9.087c0-5.019 3.904-9.087 8.719-9.087s8.719 4.069 8.719 9.087z"></path>
<path fill="#e7f278" d="M16.738 6.977h-9.494l-3.337 8.132h16.122l-3.29-8.132z"></path>
<path fill="#e7f278" d="M17.303 9.451c0 3.044-2.378 5.511-5.311 5.511s-5.311-2.467-5.311-5.511c0-3.044 2.378-5.511 5.311-5.511s5.311 2.467 5.311 5.511z"></path>
<path fill="#784f41" d="M17.111 20.203c0 2.858-2.317 5.175-5.175 5.175s-5.175-2.317-5.175-5.175c0-2.858 2.317-5.175 5.175-5.175s5.175 2.317 5.175 5.175z"></path>
<path fill="#000" d="M9.607 10.289c0 0.625-0.507 1.132-1.132 1.132s-1.132-0.507-1.132-1.132c0-0.625 0.507-1.132 1.132-1.132s1.132 0.507 1.132 1.132z"></path>
<path fill="#fff" d="M9.221 9.848c0 0.198-0.161 0.359-0.359 0.359s-0.359-0.161-0.359-0.359c0-0.198 0.161-0.359 0.359-0.359s0.359 0.161 0.359 0.359z"></path>
<path fill="#fff" d="M8.558 10.289c0 0.107-0.086 0.193-0.193 0.193s-0.193-0.086-0.193-0.193c0-0.107 0.086-0.193 0.193-0.193s0.193 0.086 0.193 0.193z"></path>
<path fill="#000" d="M16.175 10.289c0 0.625-0.507 1.132-1.132 1.132s-1.132-0.507-1.132-1.132c0-0.625 0.507-1.132 1.132-1.132s1.132 0.507 1.132 1.132z"></path>
<path fill="#fff" d="M15.789 9.848c0 0.198-0.161 0.359-0.359 0.359s-0.359-0.161-0.359-0.359c0-0.198 0.161-0.359 0.359-0.359s0.359 0.161 0.359 0.359z"></path>
<path fill="#fff" d="M15.127 10.289c0 0.107-0.086 0.193-0.193 0.193s-0.193-0.086-0.193-0.193c0-0.107 0.086-0.193 0.193-0.193s0.193 0.086 0.193 0.193z"></path>
<path fill="none" stroke="#000" stroke-linejoin="miter" stroke-linecap="round" stroke-miterlimit="4" stroke-width="0.3462" d="M10.297 11.752c0.258 0.423 0.69 0.994 1.463 0.994s1.187-0.57 1.435-0.994"></path>
<path fill="#d0dc5a" d="M8.669 11.973c0 0.274-0.371 0.497-0.828 0.497s-0.828-0.222-0.828-0.497c0-0.274 0.371-0.497 0.828-0.497s0.828 0.222 0.828 0.497z"></path>
<path fill="#d0dc5a" d="M16.672 11.973c0 0.274-0.371 0.497-0.828 0.497s-0.828-0.222-0.828-0.497c0-0.274 0.371-0.497 0.828-0.497s0.828 0.222 0.828 0.497z"></path>
<path fill="#9b6b5e" d="M15.347 18.431c-0.291 0.409-1.156 0.294-1.933-0.258s-1.17-1.331-0.879-1.741c0.291-0.409 1.156-0.294 1.933 0.258s1.17 1.331 0.879 1.741z"></path>
</svg>
