<!-- Generated by IcoMoon.io -->
<svg version="1.1" xmlns="http://www.w3.org/2000/svg" width="16" height="32" viewBox="0 0 16 32">
<title>develop2</title>
<path fill="#eac7ac" d="M7.486 4.037l2.881-2.659 2.142 0.665 1.071 2.364-0.886 3.324-2.327 1.921 0.313 1.034c1.262-0.32 3.905-0.606 4.378 0.813 0.591 1.773 0 3.841 0 4.654s-0.443 2.327-0.406 3.398c0.037 1.071 0.443 2.696 0 4.876s-0.406 3.509 0 4.063c0.406 0.554 1.699 1.958 1.847 3.694-0.529 0.308-1.64 0.739-1.847 0-0.259-0.924-0.554-1.514-1.071-2.253s-0.406-2.327-0.332-3.915c0.074-1.588-0.591-6.612-0.296-7.904 0.236-1.034-0.739-3.14-1.256-4.063l-1.33 3.435c-0.135 1.662-0.399 5.378-0.369 6.944l-4.543-1.293c0.283-1.539 0.739-4.868 0.295-5.873s-1.194-2.783-1.514-3.546c-0.32-0.529-0.946-0.975-0.886 1.477 0.074 3.066-0.443 7.535-0.628 8.606s-1.367 4.912-1.367 6.131c0 0.975 0.123 1.909 0.185 2.253l-0.406 0.923-0.628-1.847c0.283-1.576 0.85-4.905 0.85-5.614 0-0.886-0.222-2.807-0.222-3.767s0.222-2.364 0.222-3.214 0.517-4.506 0.517-5.393c0-0.886 0.591-2.512 1.477-2.586s1.219-0.074 1.81-0.259c0.473-0.148 1.748-4.322 2.327-6.39z"></path>
<path fill="#eac7ac" d="M2.093 29.006c-0.177-0.739 0.345-2.549 0.628-3.361 1.39-0.369 3.841 2.475 4.248 3.361 0.325 0.709 1.022 3.201 1.33 4.359l-4.949 0.222c-0.345-1.219-1.079-3.841-1.256-4.58z"></path>
<path fill="#eac7ac" d="M10.182 33.106c-0.398-0.68-0.486-3.016-0.48-4.1 0.813-0.542 2.46-1.529 2.549-1.145s1.367 3.657 1.995 5.245c-1.188 0.283-3.665 0.68-4.063 0z"></path>
<path fill="#d6b49b" d="M4.789 22.025c0.414-1.093 0.172-2.967 0-3.767-0.035-0.177 0.798-0.369 1.219-0.443 0.295 3.25-0.123 4.802-0.369 5.171l-0.85-0.96z"></path>
<path fill="#d6b49b" d="M9.96 24.352c-0.473-2.069 0.074-5.541 0.406-7.018l2.327 0.628c-0.355 1.359-0.049 4.334 0.148 5.651l-2.881 0.739z"></path>
<path fill="#d6b49b" d="M9.702 9.061c-0.739-0.059-1.441-1.157-1.699-1.699l-0.332 0.739c0.148 0.739 1.268 1.514 1.81 1.81v-0.776c0.857 0.207 1.342-0.16 1.477-0.369-0.111 0.123-0.517 0.355-1.256 0.296z"></path>
<path fill="#d6b49b" d="M8.077 33.254c0-0.65-0.813-3.152-1.219-4.322 1.034 0.259 3.103 0.842 3.103 1.108s0.222 2.253 0.332 3.213c-0.207-0.502-1.367-2.032-1.921-2.733 0.118 0.827-0.148 2.167-0.296 2.733z"></path>
<path fill="#d6b49b" d="M12.694 19.624c0-0.709 0.222-1.65 0.332-2.032-0.259 1.441 0.148 5.245 0.259 6.021s0.148 4.506 0.148 5.319c0 0.65 0.345 1.182 0.517 1.367-0.332-0.222-0.665-0.037-0.517 0.443s-0.037 0.886-0.148 1.33c-0.111 0.443-0.259-0.037-0.443-1.071s-0.148-1.921 0-2.623 0.259-4.063 0.185-4.506c-0.074-0.443-0.332-3.361-0.332-4.248z"></path>
<path fill="#d6b49b" d="M3.423 13.382c0.266-0.443 0.628-0.086 0.776 0.148-0.739 0.148-0.259 3.804-0.222 4.432s-0.443 4.543-0.776 5.651c-0.332 1.108-1.145 3.694-1.477 4.765-0.266 0.857-0.332 2.598-0.332 3.361-0.099-1.12-0.148-3.649 0.443-4.802 0.739-1.441 0.96-5.541 1.182-7.572s0.074-5.43 0.406-5.984z"></path>
<path fill="#f5d5bc" d="M1.354 19.846c-0.025 0.067-0.052 0.143-0.082 0.227-0.261 1.1 0.097 4.622 0.267 5.609 0.185 1.071-0.886 4.95-0.886 5.393 0 0.355 0.271 1.182 0.406 1.551h-0.406c-0.702-0.886-0.591-1.33-0.259-2.216s0.259-2.475 0.259-3.324v-4.321c0-0.739 0.373-1.986 0.62-2.691 0.023-0.095 0.050-0.172 0.082-0.227z"></path>
<path fill="#f5d5bc" d="M6.747 17.039c0.355-0.296 0.911-1.674 1.145-2.327-0.148 0.946 0.776 1.773 1.256 2.068-0.308 0.357-0.99 1.389-1.256 2.659s0.111 3.804 0.332 4.912l-1.662-0.628c0.172-1.034 0.539-3.413 0.628-4.654s-0.259-1.871-0.443-2.032z"></path>
<path fill="#f5d5bc" d="M15.279 16.116c0.148-0.739 0.062-2.672 0-3.546-0.345 1.847-0.975 5.895-0.739 7.313 0.296 1.773 0.111 3.324-0.111 4.839s-0.296 2.918 0 3.657c0.296 0.739 1.071 1.477 1.219 2.253 0.118 0.62 0.566 1.293 0.776 1.551-0.012-0.566-0.259-1.972-1.145-3.066-1.108-1.367-0.96-2.844-0.406-4.506s0.037-3.989 0-4.913c-0.037-0.923 0.222-2.659 0.406-3.583z"></path>
<path fill="#f5d5bc" d="M2.758 33.808c-1.3-2.689-0.96-5.036-0.628-5.873 0 1.182 1.083 4.235 1.625 5.614l-0.997 0.258z"></path>
<path fill="#34a853" d="M3.866 13.973c0-0.473 0.936-2.413 1.404-3.324 0 0.554-0.222 1.145-0.591 1.921s-0.111 1.551 0.369 2.512c0.384 0.768 1.17 1.576 1.514 1.884-0.665 0.431-2.083 1.138-2.438 0.517-0.443-0.776-0.259-2.918-0.259-3.509z"></path>
<path fill="#34a853" d="M10.256 16.189c0.768-0.916 0.985-3.509 0.997-4.691 0.185 0.259 1.699 4.395 1.625 5.467-0.059 0.857-1.896 0.702-2.807 0.517-0.259-0.049-0.584-0.377 0.185-1.293z"></path>
<path fill="#34a853" d="M7.116 23.023c-0.886-0.207-1.847-0.997-2.216-1.367-0.355 0.502-0.837 1.588-1.034 2.068 0.554 1.33 9.012 2.327 9.012 1.145 0-0.945-0.172-1.773-0.259-2.068-0.111 0.369-1.773 0.554-2.364 0.554s-2.031-0.074-3.14-0.332z"></path>
<path fill="#2c9a4a" d="M5.86 17.113c0.621-0.148 1.588-0.85 1.995-1.182 0.345 0.357 1.115 1.093 1.441 1.182 0.295 0.081 0.552-0.26 0.671-0.489 0.009-0.021 0.019-0.043 0.031-0.065-0.009 0.020-0.019 0.042-0.031 0.065-0.312 0.752 1.457 0.82 2.247 0.748 0.65-0.059 0.665-0.788 0.591-1.145 0.266 0.709 0.234 1.527 0.185 1.847-0.96 0.443-2.844-0.074-3.324-0.296s-0.665-0.48-0.776-0.591c-0.111-0.111-0.776-0.85-1.034-0.886s-0.702 0.813-0.96 1.071c-0.259 0.259-0.443 0.776-1.33 1.145s-1.477-0.406-1.477-0.665v-0.48c0.111 0.111 0.997-0.074 1.773-0.259z"></path>
<path fill="#2c9a4a" d="M2.942 25.83c-0.059-0.65 0.591-1.674 0.923-2.105 0 0.222 1.662 0.776 4.469 1.293 2.246 0.414 3.965 0.049 4.543-0.185l-0.074 3.472c-0.653 0.369-1.987 1.137-2.105 1.256-0.148 0.148-0.96 0.702-1.182 0.96-0.177 0.207-0.443 0.16-0.554 0.111-0.369 0.111-0.628 0.111-0.739 0s-1.625-1.477-1.847-1.551-3.361-2.438-3.435-3.251z"></path>
<path fill="#a08263" d="M11.549 2.043c-0.207-0.207-0.726-0.135-0.96-0.074-0.702-0.259-1.33 0.96-1.33 1.145s-1.219 1.108-1.477 1.293c-0.259 0.185-0.554 0.702-0.259 1.182s0.665 1.33 0.776 1.773c0.111 0.443-0.702 1.477-0.776 1.958-0.042 0.274 0.339 0.665 0.704 0.96 0.208 0.092 0.368 0.188 0.404 0.296-0.113-0.074-0.257-0.177-0.404-0.296-0.433-0.192-1.072-0.366-1.222-0.591-0.222-0.332 0-0.628 0-1.219s-0.776 1.182-1.108 1.699c-0.266 0.414-0.554 0.837-0.665 0.997l-0.886-0.48c-1.071 0.111-1.773 0.332-2.105 0.997s-0.406 2.179-0.554 2.881c-0.118 0.561-0.911 0.874-1.293 0.96 0.591-0.665 0.222-2.807 0.554-3.029s0.554-0.923 0.517-1.477c-0.037-0.554-0.037-1.256 0.591-1.699s0.443-0.85 0.517-1.958c0.059-0.886 1.354-1.699 1.995-1.995 0.074-0.16 0.244-0.739 0.332-1.773 0.111-1.293 1.736-2.068 2.105-2.068s0.96-0.665 1.182-0.997c0.222-0.332 0.813-0.332 2.068-0.48 1.005-0.118 1.945 0.788 2.29 1.256 0.776-0.111 1.514 1.367 1.514 2.29s0.997 2.807 0.813 3.103c-0.185 0.295-0.96 1.773-0.406 2.623 0.443 0.68 0.456 1.342 0.406 1.588-0.148-0.037-0.628 0.259-0.628 0.369s-0.48 0.665-0.665 0.739c-0.185 0.074-0.259 0.443 0.185 0.96s0.111 1.921 0.148 2.549c0.030 0.502 0.751 0.751 1.108 0.813-0.259 0.111-0.813 0.266-0.96 0-0.185-0.332-0.48-0.332-0.739-0.259s-0.259 0.85 0.148 0.886c0.325 0.030 0.8 0.111 0.997 0.148v0.406c-0.185-0.074-0.643-0.199-0.997-0.111-0.32 0.080-0.263 0.568-0.176 0.87 0.015 0.026 0.025 0.055 0.028 0.090-0.010-0.027-0.019-0.058-0.028-0.090-0.114-0.194-0.53-0.149-0.747-0.095 0.062-0.197 0.185-0.65 0.185-0.886 0-0.296-1.884-2.955-2.549-3.435s-0.369-1.884-0.259-2.29c0.111-0.406-0.296-0.406-0.332-0.222s-0.591 0.739-0.96 0.997c-0.369 0.259-1.551 0.628-0.849 1.81 0.561 0.946 1.293 0.517 1.588 0.185-0.259 0.739-1.256 0.665-1.588 0.222s-0.443-0.776-0.369-1.588c0.074-0.813 1.219-1.551 1.588-1.81s0.111-0.702 0.259-0.85c0.118-0.118 0.172-0.886 0.185-1.256 0.025 0.025 0.207 0.081 0.739 0.111 0.665 0.037 0.96-0.48 1.108-0.702s1.108-1.293 1.256-1.551c0.148-0.259 0.037-1.182 0.185-1.551 0.048-0.12 0.096-0.252 0.139-0.406 0.010-0.037-0.471-0.111-0.656-0.074-0.148 0.030-0.16-0.185-0.148-0.295 0.209-0.074 0.678-0.177 0.886 0 0.045-0.264 0.075-0.587 0.075-0.997 0-0.923-0.48-1.182-0.628-1.367s-0.591 0.074-0.85-0.185z"></path>
<path fill="#a08263" d="M10.477 3.779c-0.325-0.148-0.948 0.062-1.219 0.185 0.886-0.148 1.219 0.185 1.256 0.222s0.628 0.48 0.739 0.332c0.111-0.148-0.369-0.554-0.776-0.739z"></path>
<path fill="#61472d" d="M10.145 0.418c0.709-0.266 1.822 0.505 2.29 0.923-0.177 0-0.369 0.222-0.443 0.332-0.234-0.259-0.916-0.776-1.773-0.776-1.071 0-1.662 0.997-2.142 1.293s-0.702 0.997-1.145 1.514c-0.443 0.517 0.96 3.657 0.96 4.174s-0.369 1.182-0.369 1.625c0 0.443 1.034 0.554 1.662 1.034s0.111 1.108-0.96 1.551c-0.857 0.355-0.923 1.379-0.85 1.847-0.517-2.253 1.847-2.29 1.81-2.955s-1.404-0.776-1.662-1.071c-0.259-0.296-0.185-1.404-0.148-1.699s-0.111-1.404-0.443-2.068c-0.266-0.532-0.357-1.65-0.369-2.142-0.295 0.259-0.48 1.108-0.591 1.33s-2.031 1.699-2.031 2.327c0 0.628-1.034 2.068-1.551 2.549-0.414 0.384-0.739 0.997-0.85 1.256 0.037-0.369 0.222-1.034 0.517-1.404s1.219-1.367 1.441-2.549c0.222-1.182 1.995-1.921 1.995-2.659s0.702-2.364 1.182-2.475c0.48-0.111 1.588-1.219 1.884-1.625 0.236-0.325 1.157-0.357 1.588-0.332z"></path>
<path fill="#61472d" d="M12.805 1.341c-0.384-0.030-0.702 0.308-0.813 0.48 1.921 0.332 1.736 4.1 1.699 5.836s-1.477 1.625-1.81 4.026c-0.332 2.401 0.776 3.25 1.477 4.137 0.561 0.709 1.244 0.64 1.514 0.517-0.776-0.037-3.287-3.177-2.216-4.395s1.551-1.884 1.551-2.179c0-0.296-0.332-0.48-0.148-1.441s0.739-1.293 0.813-1.921c0.074-0.628-0.85-1.884-0.813-2.881s-0.776-2.142-1.256-2.179z"></path>
</svg>
