<!-- Generated by IcoMoon.io -->
<svg version="1.1" xmlns="http://www.w3.org/2000/svg" width="16" height="32" viewBox="0 0 16 32">
<title>gain</title>
<path fill="#a08263" d="M5.393 11.83c-0.74-2.327 0.194-8.436 1.648-11.733 0-0.853 4.59-0.743 6.885-0.582 0.155 1.474-3.62 7.661-5.527 10.57l0.776 3.103-1.455 4.364c-0.194-1.358-1.648-3.588-2.327-5.721z"></path>
<path fill="#61472d" d="M7.702-0.44c0.039-0.082 0.078-0.162 0.116-0.239l0.776 0.194c-0.109 0.096-0.46-0.025-0.892 0.045-0.739 1.558-1.578 4.092-1.85 6.96 0.422 3.613 1.495 7.896 1.966 9.674-1.889-3.069-2.261-6.567-1.966-9.674-0.215-1.841-0.261-3.507 0.027-4.581 0.492-1.835 1.234-2.284 1.823-2.379z"></path>
<path fill="#eac7ac" d="M13.937 2.747c1.559-0.289 2.635-1.323 2.977-1.804 0.445-0.529 1.458-1.343 1.949-0.361s-0.313 1.973-0.776 2.346c-1.732 1.588-4.247 2.105-5.287 2.165v1.011l1.137 1.624-6.947 1.408 0.361-1.895c-0.571 0.156-1.873 0.863-2.508 2.436-0.794 1.967-2.021 3.663-2.49 3.916s-1.534-0.451-2.111-0.686c-0.577-0.235-2.274-1.696-2.472-2.165-0.125-0.296-0.012-0.551 0.106-0.699-0.549 0.515-1.111 0.161-1.333-0.095-0.433 0.144-1.083-0.325-0.614-0.541s1.768-0.668 2.256-0.271c0.487 0.397 1.083 0.704 1.714 1.029 0.505 0.26 1.498 0.493 1.931 0.577 0.307-0.74 2.274-2.851 3.014-4.259s3.032-2.4 3.104-3.104c0.058-0.563 0.192-2.617 0.253-3.573 1.612 0.162 5.626-0.334 5.035 0.388s-2.364 3.576-2.707 4.412c0.487-0.499 1.851-1.57 3.411-1.859z"></path>
<path fill="#eac7ac" d="M9.029 14.405c0.664-0.967 0.012-2.845-0.397-3.663 1.221-0.192 3.764-0.523 4.168-0.307s0.168 3.194 0 4.656l-3.771-0.686z"></path>
<path fill="#eac7ac" d="M14.226 29.599c-0.101-1.574-2.977-4.024-4.403-5.053-0.944-2.623-1.584-6.962 3.411-3.338s4.535 8.68 3.681 10.755l-2.689 0.686c0.042-0.361 0.101-1.476 0-3.050z"></path>
<path fill="#eac7ac" d="M4.12 32.215l1.227-7.669c1.347 0.090 4.042 0.462 4.042 1.227s-1.6 4.614-2.4 6.442h-2.869z"></path>
<path fill="#f5d5bc" d="M6.629 3.722c1.198-0.419 1.474-1.642 1.462-2.201 0.722 1.624-0.938 3.104-1.281 3.176s-2.526 2.454-2.761 3.032c-0.155 0.382-0.979 1.465-1.576 2.216-0.145 0.252-0.265 0.411-0.337 0.419 0.097-0.119 0.212-0.261 0.337-0.419 0.544-0.945 1.448-3.197 1.576-3.696 0.162-0.632 1.083-2.003 2.58-2.526z"></path>
<path fill="#f5d5bc" d="M12.511 15.144c0.159-0.909 0.283-3.567 0.325-4.782l0.614 0.253c0.006 0.349 0.014 1.144 0 1.534s-0.271 2.268-0.397 3.158l-0.541-0.162z"></path>
<path fill="#f5d5bc" d="M17.005 26.368c-0.361-0.649-2.027-3.507-2.815-4.854-0.415 1.498 0.848 2.382 2.021 3.988 0.938 1.285 1.185 3.326 1.191 4.186 0.318-1.761-0.132-2.947-0.397-3.32z"></path>
<path fill="#f5d5bc" d="M4.427 30.934l0.812-7.507c0.054 0 0.224 0.195 0.469 0.974s-0.752 4.68-1.281 6.532z"></path>
<path fill="#f5d5bc" d="M13.053 2.874c1.602-0.029 2.869-0.914 3.302-1.353-0.415 1.047-2.274 1.588-3.519 1.931s-2.177 1.503-2.303 1.106c-0.101-0.318 0.234-0.607 0.318-0.71 0.066-0.313 0.599-0.946 2.201-0.974z"></path>
<path fill="#d6b49b" d="M2.424 13.556c0.054-0.045 0.114-0.095 0.179-0.151 0.619-0.66 1.596-2.888 2.122-4.088l0.009-0.020c0.577-1.317 1.119-1.624 2.147-1.967s0.505 0.126 0.379 1.029c-0.101 0.722-0.391 1.023-0.523 1.083l-0.505-0.812c-0.295 0.547-1.007 1.83-1.498 2.58-0.444 0.679-1.513 1.666-2.131 2.195-0.064 0.068-0.124 0.119-0.179 0.151z"></path>
<path fill="#d6b49b" d="M8.090 14.729c0.881-1.574 0.211-3.002-0.235-3.519-0.108-0.541-0.076-1.353 0.92-0.271s0.692 2.845 0.415 3.591l-1.101 0.198z"></path>
<path fill="#d6b49b" d="M17.059 3.938c-1.097 0.953-4.024 1.498-4.259 1.299-1.48 0.144 3.988-1.534 5.287-2.833 1.039-1.039 1.383-0.89 1.426-0.686-0.246 0.895-1.738 1.853-2.454 2.22z"></path>
<path fill="#d6b49b" d="M7.675 30.537c0.066-0.14 0.138-0.293 0.214-0.457 0.344-1.062 0.883-3.701 1.157-5.155 0.213-0.209 0.575-0.476 0.763-0.364 0.015-0.174 0.231-0.226 0.933 0.165 1.389 0.776 3.573 3.555 3.573 4.313-0.848-1.047-2.912-3.335-4.385-4.114-0.013 0.645-1.256 3.467-2.041 5.155-0.086 0.265-0.16 0.431-0.214 0.457z"></path>
<path fill="#d6b49b" d="M9.498 2.567c-0.606-0.448-1.155-1.041-1.353-1.281 0.138 0.108 0.621 0.458 1.444 0.992s2.183-0.559 2.761-1.173c-0.325 0.433-2.093 2.021-2.851 1.462z"></path>
<path fill="#47bc67" d="M9.462 7.169c0.274-1.458-1.582-2.965-2.544-3.537 0.812-0.776 1.967 1.209 3.699 2.526s1.895 1.263 1.895 0.379c0-0.884-1.482-2.406-1.591-2.658-0.087-0.202 0.219-0.181 0.291-0.247 0.409 0.481 1.199 1.819 1.3 2.021s1.245 1.78 1.805 2.544c-0.204 0.006-0.79 0.22-1.498 1.029-0.884 1.011-2.129-0.451-2.977-0.451s-2.544 1.66-2.707 1.371c-0.13-0.231-0.595-0.926-0.812-1.245 0.932 0.030 2.866-0.274 3.14-1.732z"></path>
<path fill="#47bc67" d="M13.269 13.791c-1.112-1.371-3.591-0.992-4.692-0.632 0 0.289-0.192 0.866-0.289 1.119 3.32-0.39 4.523 1.077 4.71 1.859 0.144-0.678 0.241-1.847 0.271-2.346z"></path>
<path fill="#34a853" d="M8.235 11.914c-0.101-0.231-0.788-1.311-1.119-1.823 0.144 0.126 1.805-1.083 2.238-1.299s0.812-0.325 1.57 0.343c0.758 0.668 1.678 0.18 1.931-0.217 0.202-0.318 1.023-0.734 1.408-0.902 0.066 0.078 0.217 0.343 0.289 0.776 0.090 0.541-0.74 1.389-0.902 1.552-0.129 0.129-0.138 0.613-0.127 0.843 0 0.002 0 0.003 0 0.005-0-0.002-0-0.003-0-0.005-0.007-0.070-0.169-0.245-0.776-0.428-0.621-0.188-3.266 0.692-4.511 1.155z"></path>
<path fill="#34a853" d="M5.384 17.743c1.357-1.487 2.538-2.989 2.959-3.555 3.551-0.202 4.583 1.215 4.656 1.949 0.115 0.693-0.481 1.732-0.794 2.165l2.057 3.483c-0.231 2.194-2.514 3.441-3.627 3.789l-0.758-0.668-0.523 1.426c-1.054-1.025-3.338-1.101-4.349-1.011 0.361-1.606-0.036-2.851-0.217-3.537s-1.101-2.184 0.595-4.042z"></path>
<path fill="#2c9a4a" d="M13.486 11.445c-0.577-0.606-3.681 0.205-5.161 0.686l-0.198-0.469c1.107-0.331 3.512-1.014 4.277-1.101s1.041 0.277 1.083 0.469v0.415z"></path>
<path fill="#2c9a4a" d="M6.881 21.352c-1.819-1.574-1.251-3.615-0.74-4.439-0.74 2.581 0.74 3.88 1.823 4.962 0.659 0.658 1.268 1.693 1.647 2.436 1.49-0.62 4.51-2.003 4.669-2.58-0.006 0.914-0.74 2.97-3.627 3.88l-0.758-0.704-0.487 1.444c-0.837-0.794-3.248-1.053-4.349-1.083v-0.686l4.836 0.325c-0.247-0.529-1.195-1.981-3.014-3.555z"></path>
</svg>
