<!-- Generated by IcoMoon.io -->
<svg version="1.1" xmlns="http://www.w3.org/2000/svg" width="10" height="32" viewBox="0 0 10 32">
<title>lose</title>
<path fill="#eac7ac" d="M1.826 3.966c-0.182-0.273-0.076-1.31 0-1.794l2.339-1.499 2.18 2.135c0.091 0.644 0.282 2.253 0.318 3.543 0.045 1.613 1.385 2.725 1.772 3.566 0.309 0.672 0.386 2.718 0.386 3.657h-0.999c-0.159 0.992-0.518 3.198-0.681 4.088-0.204 1.113 0.091 1.158 0 1.862-0.073 0.563-1.272 3.157-1.862 4.384 1.272 0.712 3.834 2.38 3.907 3.362s-0.727 2.135-1.136 2.589l0.772 2.453-8.813-0.182c0.386-1.219 1.363-4.057 2.18-5.655s2.127-5.769 2.68-7.654c-0.091-0.672-0.189-3.218-0.227-4.406l-2.453 0.182c0.023-0.545 0.45-2.076 1.976-3.838s0.818-2.961 0.273-3.34c-0.319 0.151-0.607 0.259-0.772 0.319-0.432 0.159-0.863-0.522-0.977-0.795s-0.659-1.34-0.75-1.658c-0.091-0.318-0.023-0.681 0-0.75s0.114-0.227-0.114-0.568z"></path>
<path fill="#a08263" d="M6.096 3.285c-0.636-0.295-1.862 0.977-2.725-0.659-0.273-0.295-1.090-0.25-1.113 0.182-0.018 0.345-0.636 1.090-0.772 1.204-0.182-0.036-0.083-0.75-0.182-0.886 0-2.385 1.226-2.839 2.067-2.998s1.613-0.113 3.248 0.84c1.471 0.858 1.976 5.247 1.522 6.836-0.258 0.904 0.023 1.447 0.244 1.732 0.050 0.058 0.096 0.111 0.138 0.16 0.039 0.041 0.066 0.069 0.072 0.084-0.022-0.026-0.046-0.054-0.072-0.084-0.037-0.040-0.086-0.093-0.138-0.16-0.682-0.788-2.079-2.391-2.425-2.959-0.309-0.509 0.061-2.339 0.136-3.293z"></path>
<path fill="#61472d" d="M6.482 0.764c-0.799-0.636-2.12-0.265-2.68 0 2.135-0.704 3.202 1.976 3.248 3.066 0.036 0.872 0.5 2.362 0.727 2.998-0.182-1.272 0.136-2.226 0.182-3.134s-0.477-2.135-1.476-2.93z"></path>
<path fill="#34a853" d="M1.121 15.095c0.073-0.799 1.635-2.62 2.408-3.43-0.763 1.599 0.379 2.453 1.045 2.68 0.030-0.144 0.086-0.332 0.068 0.068s0.114 3.165 0.182 4.497c-0.273 0.527-1.098 2.945-1.476 4.088l-0.954 2.953c-0.69-1.326-0.606-6.776-0.477-9.335-0.295-0.174-0.868-0.722-0.795-1.522z"></path>
<path fill="#34a853" d="M7.89 13.551c0.3-0.067 0.895-0.25 0.908-0.448 0-0.002 0-0.004 0-0.007 0 0.002-0 0.004-0 0.007-0.046 1.381-0.342 4.507-1.158 6.012-1.022 1.885-0.613 2.657-0.114 3.271s2.839 3.611 1.476 6.223c0.144-0.515 0.209-1.74-0.681-2.521s-2.385-1.749-3.021-2.135c0.545-1.166 1.663-3.616 1.772-4.088 0.134-0.581 0.064-0.991 0.003-1.346l-0.003-0.017c-0.136-0.795 0.159-2.589 0.818-4.951z"></path>
<path fill="#2c9a4a" d="M2.689 16.777c-1.381-0.145-1.605-1.166-1.544-1.658 0 1.944 2.725 1.544 3.271 0 0 0.613-0.345 1.803-1.726 1.658z"></path>
<path fill="#2c9a4a" d="M5.346 23.909l0.591-1.272c1.236 0.535 3.582 2.432 3.118 5.748-0.002 0.015-0.004 0.030-0.006 0.044 0.002-0.015 0.004-0.029 0.006-0.044 0.066-0.563-0.301-1.978-2.3-3.499l-1.408-0.977z"></path>
<path fill="#d6b49b" d="M3.665 7.736c-0.114 0.038-0.391 0.045-0.591-0.227-0.25-0.341-0.409-0.545-0.5-0.863 0.098 0.174 0.345 0.563 0.545 0.727 0.25 0.204 0.818 0.136 0.999 0 0.142-0.106 1.001-0.475 1.459-0.794 0.104-0.093 0.194-0.179 0.267-0.251-0.040 0.075-0.137 0.161-0.267 0.251-0.213 0.191-0.484 0.413-0.772 0.612 0.566 0.606 1.275 2.117-0.414 3.316 0.363-0.432 0.968-1.544 0.477-2.544-0.056-0.114-0.226-0.377-0.459-0.522-0.257 0.146-0.514 0.256-0.745 0.295z"></path>
<path fill="#d6b49b" d="M7.844 13.778c0.109-1.672-0.984-2.483-1.544-2.68 1.681 1.635 1.045 1.363 1.249 2.68s-0.84 3.929-0.84 5.36c0 1.431-0.863 2.657-1.681 4.156-0.654 1.199-1.181 3.059-1.363 3.838 1.014-2.158 3.093-6.632 3.293-7.268 0.25-0.795 0.136-0.431 0.114-1.862s0.636-2.135 0.772-4.225z"></path>
<path fill="#d6b49b" d="M5.002 33.112l4.094-4.893c-0.399 1.398-3.196 4.294-3.695 4.865l-0.399 0.028z"></path>
<path fill="#d6b49b" d="M6.141 3.739c0.018-0.963-0.462-0.704-0.704-0.454 0.821 0 0.615 1.166 0.409 1.749 0.091-0.030 0.277-0.332 0.295-1.295z"></path>
<path fill="#f5d5bc" d="M4.665 15.664c-0.073-1.526 0.151-2.135 0.273-2.249-0.295 0.75-0.114 2.249 0.114 3.975s0 2.385-0.545 3.202c-0.436 0.654-1.726 4.346-2.317 6.11 0.236-1.108 1.855-5.686 2.635-7.836-0.023-0.432-0.086-1.676-0.159-3.202z"></path>
</svg>
